# xmcd
#
# Track frame offsets:
#	150
#	11423
#	21518
#	46368
#
# Disc length: 879 seconds
#
# Revision: 1
# Processed by: cddbd v1.5.2PL0 Copyright (c) Steve Scherf et al.
# Submitted via: audiograbber 1.83.01
#
DISCID=29036d04
DTITLE=Brave, Dick - Take Good Care Of My Baby (Maxi-CD)
DYEAR=2004
DGENRE=
TTITLE0=Take Good Care (Radio Version)
TTITLE1=Backbeat Boogie
TTITLE2=Be The One For Me (Live)
TTITLE3=Walk This Way (Enhanced Video)
EXTD=
EXTT0=
EXTT1=
EXTT2=
EXTT3=
PLAYORDER=
